<svg xmlns="http://www.w3.org/2000/svg" width="511.998" height="335.414" viewBox="0 0 511.998 335.414">
  <g id="Certification" transform="translate(0 -88.293)">
    <g id="Group_45" data-name="Group 45">
      <g id="Group_44" data-name="Group 44">
        <path id="Path_73" data-name="Path 73" d="M503.332,88.293H8.668A8.668,8.668,0,0,0,0,96.961V399.769a8.668,8.668,0,0,0,8.668,8.668H360.962v6.6a8.667,8.667,0,0,0,13.767,7.009l20.327-14.787,20.333,14.781a8.669,8.669,0,0,0,13.765-7.012v-6.594H503.33A8.668,8.668,0,0,0,512,399.768V96.961A8.665,8.665,0,0,0,503.332,88.293ZM482.4,105.629l-11.558,11.558H41.152L29.594,105.629Zm-28.987,185.5a22.332,22.332,0,0,1-2.351-3.964,22.592,22.592,0,0,1-.5-4.9c-.17-4.341-.383-9.743-3.821-14.468-3.463-4.758-8.556-6.626-12.65-8.128a22.405,22.405,0,0,1-4.431-1.938,22.569,22.569,0,0,1-3.137-3.554c-2.7-3.457-6.065-7.759-11.726-9.6-5.493-1.782-10.653-.326-14.8.844a22.844,22.844,0,0,1-4.949,1.063,22.965,22.965,0,0,1-4.949-1.063c-4.15-1.171-9.313-2.625-14.8-.844-5.66,1.838-9.024,6.141-11.726,9.6a22.716,22.716,0,0,1-3.138,3.554,22.285,22.285,0,0,1-4.431,1.938c-4.094,1.5-9.187,3.371-12.65,8.128-3.438,4.724-3.65,10.127-3.821,14.468a22.544,22.544,0,0,1-.5,4.9,22.294,22.294,0,0,1-2.351,3.964c-2.468,3.656-5.537,8.2-5.537,14.232s3.07,10.578,5.537,14.233a22.27,22.27,0,0,1,2.351,3.964,22.6,22.6,0,0,1,.5,4.9c.17,4.341.383,9.743,3.821,14.468,3.463,4.757,8.556,6.626,12.65,8.128A22.459,22.459,0,0,1,360.446,353a5.115,5.115,0,0,1,.514.448v8.762H46.23V134.524H465.77V362.208H429.156v-8.762a5.147,5.147,0,0,1,.516-.45,22.515,22.515,0,0,1,4.431-1.938c4.092-1.5,9.186-3.371,12.647-8.127,3.44-4.725,3.651-10.128,3.822-14.47a22.642,22.642,0,0,1,.495-4.9,22.314,22.314,0,0,1,2.352-3.965c2.468-3.656,5.537-8.206,5.537-14.233S455.886,294.786,453.418,291.13ZM28.894,367.284,17.336,378.842V117.887l11.558,11.558V367.284ZM360.961,391.1H29.594l11.558-11.558H360.961Zm50.858,6.915-11.668-8.482a8.667,8.667,0,0,0-10.2,0l-11.657,8.48v-31.2a18.345,18.345,0,0,0,2.422.165,34.336,34.336,0,0,0,9.388-1.677,22.863,22.863,0,0,1,4.95-1.063,22.964,22.964,0,0,1,4.949,1.063c3.385.955,7.448,2.1,11.811,1.52Zm16.31-63.233a27.038,27.038,0,0,0-15.255,11.091c-.985,1.26-2.615,3.346-3.4,3.769a21.839,21.839,0,0,1-4.764-1.024,28.051,28.051,0,0,0-19.31,0,22.3,22.3,0,0,1-4.763,1.024c-.781-.423-2.413-2.509-3.4-3.768a33.771,33.771,0,0,0-6.594-6.894,34.178,34.178,0,0,0-8.662-4.2,21.145,21.145,0,0,1-4.593-2.051,21.606,21.606,0,0,1-.526-4.949,34.62,34.62,0,0,0-1.328-9.575,33.291,33.291,0,0,0-4.47-8.309c-.94-1.392-2.511-3.72-2.572-4.522.061-.828,1.632-3.155,2.572-4.547a33.209,33.209,0,0,0,4.469-8.309,34.553,34.553,0,0,0,1.329-9.575,21.606,21.606,0,0,1,.526-4.949,21.122,21.122,0,0,1,4.593-2.051,27.035,27.035,0,0,0,15.256-11.091c.985-1.26,2.617-3.347,3.4-3.769a21.964,21.964,0,0,1,4.763,1.024,28.035,28.035,0,0,0,19.31,0,21.873,21.873,0,0,1,4.764-1.024c.781.422,2.412,2.508,3.4,3.768a27.016,27.016,0,0,0,15.256,11.09A21.163,21.163,0,0,1,432.722,278a21.647,21.647,0,0,1,.526,4.949,34.591,34.591,0,0,0,1.329,9.575,33.22,33.22,0,0,0,4.469,8.308c.94,1.392,2.511,3.72,2.572,4.524-.06.828-1.632,3.156-2.572,4.549a33.2,33.2,0,0,0-4.47,8.308,34.55,34.55,0,0,0-1.328,9.575,21.457,21.457,0,0,1-.526,4.948A21.082,21.082,0,0,1,428.129,334.783Zm1.026,56.318V379.543h41.693L482.406,391.1Zm65.509-12.259-11.558-11.558V129.446l11.558-11.558Z" fill="#fff"/>
      </g>
    </g>
    <g id="Group_47" data-name="Group 47">
      <g id="Group_46" data-name="Group 46">
        <path id="Path_74" data-name="Path 74" d="M418.157,282.267a32.65,32.65,0,1,0,0,46.2A32.7,32.7,0,0,0,418.157,282.267ZM405.9,316.2a15.321,15.321,0,1,1,0-21.679A15.344,15.344,0,0,1,405.9,316.2Z" fill="#fff"/>
      </g>
    </g>
    <g id="Group_49" data-name="Group 49">
      <g id="Group_48" data-name="Group 48">
        <path id="Path_75" data-name="Path 75" d="M333.436,165.746H178.564a8.668,8.668,0,0,0,0,17.336H333.435a8.668,8.668,0,0,0,0-17.336Z" fill="#fff"/>
      </g>
    </g>
    <g id="Group_51" data-name="Group 51">
      <g id="Group_50" data-name="Group 50">
        <path id="Path_76" data-name="Path 76" d="M309.165,232.78H202.835a8.668,8.668,0,0,0,0,17.336h106.33a8.668,8.668,0,1,0,0-17.336Z" fill="#fff"/>
      </g>
    </g>
    <g id="Group_53" data-name="Group 53">
      <g id="Group_52" data-name="Group 52">
        <path id="Path_77" data-name="Path 77" d="M363.485,198.107H148.515a8.668,8.668,0,0,0,0,17.336H363.486a8.668,8.668,0,1,0,0-17.336Z" fill="#fff"/>
      </g>
    </g>
    <g id="Group_55" data-name="Group 55">
      <g id="Group_54" data-name="Group 54">
        <path id="Path_78" data-name="Path 78" d="M216.7,312.51h-68.19a8.668,8.668,0,0,0,0,17.336H216.7a8.668,8.668,0,0,0,0-17.336Z" fill="#fff"/>
      </g>
    </g>
  </g>
</svg>
