<svg xmlns="http://www.w3.org/2000/svg" width="259.24" height="291.795" viewBox="0 0 259.24 291.795">
  <g id="Finance" transform="translate(-38.6 -11.021)">
    <g id="Group_58" data-name="Group 58" transform="translate(38.6 11.022)">
      <g id="Group_57" data-name="Group 57">
        <path id="Path_80" data-name="Path 80" d="M395.991,171.283A129.494,129.494,0,0,0,298.672,45.775a10.241,10.241,0,1,0-5.066,19.845,109.117,109.117,0,0,1,16.568,205.6l9.476-22.05a10.251,10.251,0,1,0-18.832-8.1L282.343,284.1a10.307,10.307,0,0,0,5.364,13.469l43.028,18.475a10.7,10.7,0,0,0,13.469-5.364,10.307,10.307,0,0,0-5.364-13.469l-18.713-8.045A129.319,129.319,0,0,0,395.991,171.283Z" transform="translate(-136.752 -24.93)" fill="#fff"/>
        <path id="Path_81" data-name="Path 81" d="M140.985,263.038A109.121,109.121,0,0,1,122.808,58.149l-8.88,20.62c-2.205,5.185.06,11.442,5.364,13.469,6.2,2.324,11.442-.477,13.469-5.364l18.475-43.087c1.788-4.172,1.728-10.429-5.364-13.469L102.844,11.843a10.251,10.251,0,1,0-8.1,18.832l20.024,8.582a129.628,129.628,0,0,0,21.156,243.626c6.913,1.788,11.264-2.741,12.455-7.39a10.274,10.274,0,0,0-7.39-12.455Z" transform="translate(-38.6 -11.022)" fill="#fff"/>
        <path id="Path_82" data-name="Path 82" d="M258.5,254.45c5.244-5.483,7.867-12.4,7.867-20.62a28.46,28.46,0,0,0-1.907-10.429,24.481,24.481,0,0,0-5.364-8.343,30.28,30.28,0,0,0-9.059-5.96,93.508,93.508,0,0,0-11.919-3.516V171.374a16.259,16.259,0,0,1,9.178,4.946c2.205,2.5,3.695,6.079,4.41,10.727l12.277-1.847c-1.073-7.509-4.172-13.469-9.356-17.759q-6.079-5.1-16.448-6.079V155.7h-7.032v5.662c-7.867.775-13.826,2.98-17.819,6.5-6.019,5.244-9,12.1-9,20.56a25.743,25.743,0,0,0,3.1,12.753,21.391,21.391,0,0,0,8.761,8.761,49.135,49.135,0,0,0,15.018,5.662v37.843c-4.648-.477-8.7-2.861-12.038-7.092-2.324-2.98-3.993-7.688-4.887-14.065L202.3,234.545a33.483,33.483,0,0,0,4.708,15.674,24.734,24.734,0,0,0,9.654,9.3c3.695,1.907,8.582,3.218,14.482,3.993v11.859h7.032V263.329c8.343-.417,15.137-3.4,20.322-8.88ZM231.2,204.091c-5.423-1.609-9.237-3.814-11.5-6.555a15.469,15.469,0,0,1-3.4-10.191,15.267,15.267,0,0,1,3.993-10.608,17.817,17.817,0,0,1,10.906-5.542Zm18.415,43.266a17.738,17.738,0,0,1-11.442,6.019V217.2c6.377,2.086,10.668,4.41,12.813,7.032s3.218,6.079,3.218,10.429a18.747,18.747,0,0,1-4.589,12.694Z" transform="translate(-104.742 -69.478)" fill="#fff"/>
      </g>
    </g>
  </g>
</svg>
