<svg xmlns="http://www.w3.org/2000/svg" width="511.999" height="392.534" viewBox="0 0 511.999 392.534">
  <g id="Support" transform="translate(0 -59.733)">
    <g id="Group_56" data-name="Group 56">
      <path id="Path_79" data-name="Path 79" d="M452.028,222.2C447.087,131.883,361.062,59.733,256,59.733S64.913,131.883,59.972,222.2C25.745,224.683,0,242.372,0,264.533v34.133c0,23.927,29.986,42.667,68.267,42.667A8.525,8.525,0,0,0,76.8,332.8V230.4c0-84.693,80.393-153.6,179.2-153.6s179.2,68.907,179.2,153.6v98.867l-20.6,20.6H396.937a183.891,183.891,0,0,0,12.664-67.32c0-93.585-68.907-169.719-153.6-169.719S102.4,188.961,102.4,282.546,171.307,452.267,256,452.267c56.883,0,106.53-34.423,133.077-85.333h29.056a8.5,8.5,0,0,0,6.033-2.5l23.159-23.159C483.873,340.149,512,321.845,512,298.668V264.535C512,242.372,486.255,224.683,452.028,222.2ZM378.351,349.875H298.667a25.631,25.631,0,0,0-25.6-25.6H238.934a25.631,25.631,0,0,0-25.6,25.6v17.067a25.631,25.631,0,0,0,25.6,25.6h34.133a25.631,25.631,0,0,0,25.6-25.6h71.014C345.19,408.038,303.394,435.2,256,435.2c-75.281,0-136.533-68.471-136.533-152.653S180.719,129.9,256,129.9s136.533,68.471,136.533,152.653A166.2,166.2,0,0,1,378.351,349.875Z" fill="#fff"/>
    </g>
  </g>
</svg>
